/* XPM */
static char *fd6f2b9b11f244d1e889a869c098bba5yN4iegDrRn6XYDBf[] = {
/* columns rows colors chars-per-pixel */
"64 64 210 2 ",
"   c None",
".  c #16161E",
"X  c #1B1C24",
"o  c #1E1F28",
"O  c #171720",
"+  c #22232C",
"@  c #26282F",
"#  c #2A2B34",
"$  c #282932",
"%  c #2E3137",
"&  c #32353C",
"*  c #35393F",
"=  c #302F3A",
"-  c #1F2128",
";  c #4E2515",
":  c #512615",
">  c #552A18",
",  c #5B2E1A",
"<  c #552917",
"1  c #5F301C",
"2  c #64331D",
"3  c #6D391E",
"4  c #723B1F",
"5  c #7C3A1F",
"6  c #442C27",
"7  c #4C312C",
"8  c #45302F",
"9  c #53352E",
"0  c #5B372B",
"q  c #4B3636",
"w  c #543733",
"e  c #553937",
"r  c #6D3C23",
"t  c #673C27",
"y  c #733C22",
"u  c #7C3B20",
"i  c #5D413B",
"p  c #754226",
"a  c #73432B",
"s  c #79462B",
"d  c #7A492E",
"f  c #6B463A",
"g  c #784B37",
"h  c #7A503E",
"j  c #3A3A45",
"k  c #3E3D4A",
"l  c #363641",
"z  c #443D45",
"x  c #423F4B",
"c  c #483F48",
"v  c #543E43",
"b  c #3E4148",
"n  c #4D4145",
"m  c #4C434D",
"M  c #42454D",
"N  c #534344",
"B  c #53444A",
"V  c #5B494B",
"C  c #59464A",
"Z  c #454454",
"A  c #494655",
"S  c #4D4C5B",
"D  c #4A4957",
"F  c #554A54",
"G  c #5A4C54",
"H  c #534E5B",
"J  c #5B4E58",
"K  c #524652",
"L  c #4E5359",
"P  c #53525D",
"I  c #5C525C",
"U  c #525B5E",
"Y  c #644A46",
"T  c #6C4C44",
"R  c #644C4B",
"E  c #664946",
"W  c #6D514A",
"Q  c #74544B",
"!  c #7A5548",
"~  c #65545C",
"^  c #695558",
"/  c #775A55",
"(  c #6A4C4E",
")  c #7B615E",
"_  c #4F4F62",
"`  c #504F63",
"'  c #545364",
"]  c #595565",
"[  c #5A5B65",
"{  c #565569",
"}  c #595769",
"|  c #5B596C",
" . c #555A65",
".. c #5D5D72",
"X. c #625761",
"o. c #645A64",
"O. c #6B5C63",
"+. c #625D6C",
"@. c #6A5F6D",
"#. c #725F61",
"$. c #615F74",
"%. c #605F78",
"&. c #5A6166",
"*. c #5C676A",
"=. c #67656C",
"-. c #736165",
";. c #776468",
":. c #616075",
">. c #656D72",
",. c #64647A",
"<. c #69697C",
"1. c #6A6678",
"2. c #667074",
"3. c #6A7277",
"4. c #6C7579",
"5. c #6D797C",
"6. c #727B7F",
"7. c #726975",
"8. c #834C2D",
"9. c #874C2C",
"0. c #89512F",
"q. c #884E33",
"w. c #855132",
"e. c #8C5332",
"r. c #8C563B",
"t. c #83543E",
"y. c #935635",
"u. c #965834",
"i. c #9C5B35",
"p. c #935B3D",
"a. c #9B5D3B",
"s. c #914E2F",
"d. c #A25E3A",
"f. c #9C603E",
"g. c #A4623D",
"h. c #AB663D",
"j. c #AD693E",
"k. c #B36A3E",
"l. c #845642",
"z. c #8B5B45",
"x. c #875C4A",
"c. c #935D42",
"v. c #865F52",
"b. c #8D614E",
"n. c #9C6243",
"m. c #94624B",
"M. c #9A654C",
"N. c #966144",
"B. c #85635A",
"V. c #8C6352",
"C. c #976753",
"Z. c #A46543",
"A. c #AC6943",
"S. c #AC6C4B",
"D. c #A66745",
"F. c #B46D42",
"G. c #B86F44",
"H. c #B26E49",
"J. c #BA7245",
"K. c #B5724C",
"L. c #BD7449",
"P. c #BB744A",
"I. c #AE7252",
"U. c #836F74",
"Y. c #C1764C",
"T. c #C2794E",
"R. c #C57A50",
"E. c #6D6B81",
"W. c #737D81",
"Q. c #777383",
"!. c #6F7E80",
"~. c #82798C",
"^. c #7A8487",
"/. c #7A8589",
"(. c #7C8B8E",
"). c #768486",
"_. c #7D9192",
"`. c #818B8F",
"'. c #818D91",
"]. c #839395",
"[. c #899699",
"{. c #8B9A9D",
"}. c #879698",
"|. c #8D9EA1",
" X c #929EA2",
".X c #8FA1A4",
"XX c #93A2A5",
"oX c #95A6A9",
"OX c #99A6AA",
"+X c #96A8AB",
"@X c #9BABAE",
"#X c #9DADB1",
"$X c #9FB1B4",
"%X c #A1AAAE",
"&X c #A1AEB1",
"*X c #A3B2B5",
"=X c #A6B5B9",
"-X c #A9B6BA",
";X c #ABBABD",
":X c #A8B6B9",
">X c #AEBEC1",
",X c #B1BEC1",
"<X c #B3C2C5",
"1X c #B9C6C9",
"2X c #BCCACD",
"3X c #B6C5C8",
"4X c #AFC1C3",
"5X c #C2CED2",
"6X c #C9D5D9",
"7X c #D2DCE0",
/* pixels */
"                                                                                                                                ",
"                                                                                                                                ",
"                                                                                                                                ",
"                                                                                                                                ",
"                                                                                                                                ",
"                                                              @X%X                                                              ",
"                                                    %X&X'.@X2X3X5X1X1X;X[.`.                                                    ",
"                                                /.=X#X@X*XoX;X5X6X6X7X;X{.:X&X                                                  ",
"                                          *X>X<X(.&X#X.X+X<X*XXXOX*X;X;X,X;X%X'.:X:X                                            ",
"                                      OX/.{.2X6X'.OX=X#X+X>X>X@X%X*X*X;X;X5X6.:X;X;X-X&X                                        ",
"                                    2.+X@X$X.X.X X^.-X=X@X(.[ l k 3.[.;X2X3X].>X#X@X*X&XXX3.                                    ",
"                                $X*X>./..X}..X$X>XW.'.[ @ O X + + O X * 6.4.@X=X+X{.|.@X*.[.:X*X                                ",
"                              @X=X;X@X5.#X}.|.@X[.= . X $ x S H F D j @ X .  .#X#X|.oX@X6.2X2X@XXX                              ",
"                            &X*X+X@X=X.X}.@X{.L X @ x ] ^ A Z ' S A F q S & o @ 4.#X&X4.*X3X>X*X-X&X                            ",
"                          #X&X$XoX|.|.@X{. .$ $ D [ / D.u c A ' ' Z B ; r.R ' l - j 3.XX;X=X{.4X,X-X%X                          ",
"                          ].(.|.*X*X|.[.M o M [ B.A.a h.y c ` ' ' ' n ; u.8.Z./ P = - 6.,X].+X.X#X=X%X                          ",
"                        U ).*X;X;X;X@XP - Z o.! k.p.@.c.u c $.] ` $.B : y.( c.0.V.P & + >._.|.XX#X@X3.                          ",
"                      &XOX4.).*X;X:XP $ S o.Z.u.G.c.~.n.u K { { ] { V < r.~.B.0.k.n.I b + 6.@X@XOX>.'.:X:X                      ",
"                    *X;X;X;X].6.[.L @ L ) t j.j.G.L.q.J.y F { { { { G < d.A.H.u.G.k.a J k + 4.`.2./.XXOX].                      ",
"                    =X=X;X;X;X X& o A / j.p j.J.Y.Y.y.L.u c %.{ ] %.K < A.Y.L.u.J.J.p h.~ l O &.@X$X.X{.;X&X                    ",
"                  @X;X=X*X4X>X}.+ b ~ F.k.p h.L.T.T.y.L.5 F | | } { J , g.Y.Y.a.J.H.p k.g.F $ L @XoX.X$X=X=X                    ",
"                  *X=X;X$X.X@X .$ L h k.J.p k.L.T.T.y.Y.5 F ..} } ..J , A.T.Y.i.L.J.p Y.k.! k @ (.oX{.{.$X$X%X                  ",
"                  %X$X.X_._. X# b / 0.k.F.p J.P.T.R.r.Y.5 K | } } | J , A.Y.Y.a.L.J.p J.F.0.B # L @XXX.X+X$X#X                  ",
"                  $X-X{.(.|.3.= L N.w.! T 0 J.L.R.Y.e.Y.u m %.' ] %.B , H.T.T.g.K.G.t p.g.e.h k $ oX@X+X=X>X&X                  ",
"                  XX+X}.{.OXb b C i.^ ] ] ] K.T.R.T.w.T.u K | ] ' ..J < H.Y.T.Z.A.A.] ] o.f u.V # 3.*X@X@X;X*X                  ",
"                  *X*X@X#X[.$ D ! l.] Q m.+.S.T.T.L.q.T.u K | { ' ..J < H.Y.G.A.D.M.' / J ] u.Q j b @X*X*X:X&X                  ",
"                  [./.6.W.M @ F c.#.Y k.C.T L.T.T.H.w.T.u B { ] ' { G < H.R.F.Z.D.H.~ S.d.o.V.c.z X =.).^.^.                    ",
"                  <X5X;X|.&.+ H / +.R b.C.T V.V.C.B.t.T.u v %.' P %.K < H.P.Z.a.a.h.a S.h.! -.x.x X {.;X;X;X*X                  ",
"                  3X6X6X-X>.@ | ' ,.E.<.,.<.:.......7.S.u v | ' ` | J : c.7.$.$.:.,.<.,.<.<...{ Z X {.3X3X*X=X                  ",
"                  %X3X2X+X>.@ [ v.| E c.M.f M.M.C.V.h L.u K ..' ` | J > S.B.O.( / / ^ / ) #.$.=.S o {.4X<X#X*X                  ",
"                  {.@X4X-X2.+ W A.;.e k.C.g L.T.T.T.s L.u v { ' ` { J , H.L.H.d.A.H.a K.A.! ;.M.m X XX:X+XoX&X                  ",
"                  |.(.*X@X2.+ W F.V.] ! b.] K.L.A.T.s Y.u v ..{ H $.K 2 F.T.K.d.J.K.] n.r.X.m.j.i + XX}.#XXX*X                  ",
"                  oX_.|.;X3.+ W k.G.^ ] } o.F.Y.c.R.s L.5 C } ' H | F r H.R.L.a.T.D...~ I ] h.j.i + oX!.oXXX=X                  ",
"                  @XXXoX=X4.- W k.G.w.z.! r J.Y.u.R.y L.u v { | ' | F 1 A.R.J.i.T.P.i ~ / a.k.k.n + XX*.|.OX&X                  ",
"                  ].}.{.oX[ + Y k.J.0.G.P.9.L.L.y.S.s L.5 e ' { ' { K , A.H.Z.c.R.L.s k.H.h.k.j.N + !.U ].].`.                  ",
"                  %X>.{.{.* + R k.G.e.G.L.q.L.F.Q Q.Q.H.5 v ..{ ] ..K , d.z.Q.Q.I.J.8.T.J.k.k.h.n . *.{.{. XXX                  ",
"                :X5XOX<X<XW.- Y k.k.u.G.L.e.G.F./ <.7.K.u e { ..{ { F > d.l.E.1.I.L.9.J.J.J.k.h.i @ $X<X<X;X-X                  ",
"                *X1X+X2X3X^.- V k.k.e.J.G.q.L.A.g $.C S.u v ` ....{ F : d.q.@.#.A.Y.e.H.J.J.k.g.n @ +X3X2X<X;X                  ",
"                *X}.XX].+X/.+ C k.k.d J.G.s.G.l.~ / 7 ^ u q Z ....` c : q.~ v.E J H.e.k.J.J.k.h.n # @X+X-X=X*X                  ",
"                [.XX{.{.XX).o C k.k.p L.G.q.h.^ D.J.y v y e ....| $.F ; ( C.G.q.f C.e.G.J.J.j.h.n # =X4X$X+X$X                  ",
"                {.*XXXOX*X(.o V k.k.0.J.j.d k.Q M.G.y B u e _ :.%.{ c > T v.G.s.i M.s.G.J.J.k.g.n % =X-X|.@X=X                  ",
"                  =X*X*X=X].- C k.k.u.J.k.d J.f.^ ( C v.u e S $.$.' x 1 y./ ( v v.H.e.F.J.J.k.f.z & &X&X#X=X*X                  ",
"                  ).!.4.^.U o N k.k.f.k.k.w.J.k.F.D.r.j.u q ....$.$.S 2 A.F.D.r.L.G.e.F.J.k.G.a.z + 6.).W.W.2.                  ",
"                  *X|.}.2X{.o C k.k.u.r.f p G.J.J.J.a.A.u w S ..$.{ x 1 k.L.L.i.L.F.8.s.F.k.G.n.z & =X;X-X-X&X                  ",
"                *XoXOX'.5X X- N h.j.Q ] ' ] A.L.L.G.g.k.u e _ ..$.` K , A.G.L.u.Y.g.G } X.Z.k.a.z & *X;X4X-X=X                  ",
"                @X{.$X/.2X X- m h.N.[ Q l.[ Z.J.L.G.h.j.u e x ..$._ c > h.L.L.u.L.c.| Q ] O.h.c.z & $X}.XX=X-X                  ",
"                @X]..X@X.X].o n g.-.V j.M.! g.k.J.G.h.k.u w | | | $.K > h.Y.J.i.L.A.^ D.d.X.v.r.b $ *..X<X>X:X                  ",
"                =X|.XX@X&X'.o Z / +.^ V.V.! ! b.V.B.z.F.u w A | $.` A 1 d.H.D.e.Z.A.8.D.d.Q ;.x.k $ }.>X-X#X&X                  ",
"                &X*X*X*X&X'.X ` { ,.E.<.,.<.:.....| 7.M.u e S ....` m 2 p.;.o.[ +.@.@.@.=.1...' Z & @X=X=X&XOX                  ",
"                  ].[./.[.2.o ' / | R x.V.! Q x.x.B.h F.u 0 S | ..' m r a.;.O.~ ^ #.~ O.#.@.+.=.S % (.`._.2.].                  ",
"                :X5X5X6X7X*X$ c N.;.i g.m.t.u.G.k.J.0.k.u 0 ` } | | F r g.G.j.y.G.k.p.p.h./ -.b.k L ,X<X,X5.<X                  ",
"                  2X5X6X2X%X# z a.m.] T ! ' y.k.J.k.8.g.u 0 Z | | _ m r i.g.j.u.G.Z.o.t g ~ N.t.j P <X<X*X(.<X                  ",
"                  2X6X6X@X@X# n p.k./ [ ] [ p.k.k.J.f O.y 0 x | | S m y f E.f.e.k.N.{ I H I u.t.j U ;X<X4X{.2X                  ",
"                  3X@X@XoX&X# k w.i.d Y V t 9.i.i.d.E `.2 0 ' } ' $.m t f U.y.p i.u.R ' ~ d 9.g j  .$X*X>X+XOX                  ",
"                  4.=X_.{.@X# j 0 4 ; 2 3 2 , y 4 4 ; 1 ; 6 x ' S S x ; 2 4 4 : 4 4 3 : 2 2 2 0 l [ *XoX@X$X$X                  ",
"                  }.$X).].@X& M q 9 6 7 9 7 6 w 9 9 6 7 6 8 A ] H _ A 8 7 w w 8 0 w 9 7 9 w 7 q Z *.*X+XoX;X=X                  ",
"                  ;X;XoX#X&X& k Z Z Z Z A S S S S _ ' S ' ' ' ' [ } ' } | | { | +...| } | } ' S Z >.-X=X&X,X*X                  ",
"                  =X;X:X-X@Xj k ..x Z Z | Z A ..S S S ..' ' ' | ' ' | | | ' E.' | | ' <.' { _ | Z >.=X:X:X:X:X                  ",
"                    &X&X&X                                                                            &X&X&X                    ",
"                                                                                                                                ",
"                                                                                                                                ",
"                                                                                                                                ",
"                                                                                                                                ",
"                                                                                                                                "
};
