/* XPM */
static char *result[] = {
/* columns rows colors chars-per-pixel */
"64 64 80 1 ",
"  c #4D4426",
". c #4E442B",
"X c #504727",
"o c #50462A",
"O c #544B2B",
"+ c #594F2D",
"@ c #5C532D",
"# c #4D4233",
"$ c #524635",
"% c #544933",
"& c #594D36",
"* c #564A39",
"= c #5A4E3C",
"- c #5D5232",
"; c #5E513E",
": c #60562F",
"> c #63582F",
", c #625730",
"< c #645931",
"1 c #695D33",
"2 c #63553E",
"3 c #685F3A",
"4 c #6E6135",
"5 c #726436",
"6 c #776837",
"7 c #796A37",
"8 c #776838",
"9 c #7D6D39",
"0 c #5F5240",
"q c #615340",
"w c #665942",
"e c #6C5C44",
"r c #686241",
"t c #68644A",
"y c #726247",
"u c #786D43",
"i c #766548",
"p c #796649",
"a c #736E4F",
"s c #7D6A4A",
"d c #76704F",
"f c #6D6B56",
"g c #797454",
"h c #7E7856",
"j c #74735E",
"k c #757664",
"l c #7E7F6D",
"z c #86743B",
"x c #89773C",
"c c #8D7A3D",
"v c #917D3E",
"b c #826E4C",
"n c #857745",
"m c #86724E",
"M c #89744F",
"N c #8A7550",
"B c #817850",
"V c #887E53",
"C c #7F816E",
"Z c #95813F",
"A c #978240",
"S c #9A8540",
"D c #90824F",
"F c #9A894F",
"G c #928654",
"H c #998B59",
"J c #8A8768",
"K c #948B60",
"L c #838473",
"P c #8E8C70",
"I c #878978",
"U c #8B8E7C",
"Y c #919076",
"T c #91937C",
"R c #939582",
"E c #9C9D86",
"W c #979A88",
"Q c #9C9F8C",
"! c #9FA089",
"~ c None",
/* pixels */
"~~~~~~~~~~~~~~~~~~~~~~~~~~~~~~~~~~~~~~~~~~~~~~~~~~~~~~~~~~~~~~~~",
"~~~~~~~~~~~~~~~~~~~~~~~~~~~~~~~~~~~~~~~~~~~~~~~~~~~~~~~~~~~~~~~~",
"~~~~~~~~~~~~~~~~~~~~~~~~~~~~~~~~~~~~~~~~~~~~~~~~~~~~~~~~~~~~~~~~",
"~~~~~~~~~~~~~~~~~~~~~~~~~~~~~~~~~~~~~~~~~~~~~~~~~~~~~~~~~~~~~~~~",
"~~~~~~~~~~~~~~~~~~~~~~~~~MMMMMMMMMMMMMsew~~~~~~~~~~~~~~~~~~~~~~~",
"~~~~~~~~~~~~~~~~~~~~MMMMMMMMMMMMMMMMMMMMbppwq~~~~~~~~~~~~~~~~~~~",
"~~~~~~~~~~~~~~~~~MMMMMNNMMMMMNMMMMbbmsmMMMMmiee~~~~~~~~~~~~~~~~~",
"~~~~~~~~~~~~~~~MMMMMMMbyyssyyybMMMssNsiysmMNMmNiw~~~~~~~~~~~~~~~",
"~~~~~~~~~~~~~~MMNNbseyybbmmbmbMMMNNNNbbpewybsybbswq~~~~~~~~~~~~~",
"~~~~~~~~~~~~~MMMbyyppNmNmMmbyiiyyyyyyybMMyq2ybbpyyiw~~~~~~~~~~~~",
"~~~~~~~~~~~~MMMMpbNNbsewwwweiiay0000qwwwwppw&qybbyeyq~~~~~~~~~~~",
"~~~~~~~~~~~MMMMMMMpyw0q=**;qq2000q00qqq**0qyy&*;ybsw=q~~~~~~~~~~",
"~~~~~~~~~~~MMNMsewq0**=;;=q=;;======0=q;=&&=q=$**0ys;&~~~~~~~~~~",
"~~~~~~~~~~~MMsyq00**=qq=***$  .......$***0q*&=w**#*sw#~~~~~~~~~~",
"~~~~~~~~~~~Msq;q0**00&$.      XXX.  @OXXo$$*=*;eqwyw0$~~~~~~~~~~",
"~~~~~~~~~~~swq;**q*$..  ++OO O@@+@@@:+OO++ .#***eye0$#~~~~~~~~~~",
"~~~~~~~~~~~00;$*0$X+:XX@@@@@+>1O+:6:6>>>61X@OXoo*=*##$~~~~~~~~~~",
"~~~~~~~~~~~2=$$&. OO@>:6O+@@4>4@>67@5xvx7>1@++O $w2ees~~~~~~~~~~",
"~~~~~~~~~~~bpps2O>@@<7>645596@7Zvz4:5cvx4>6:++>@&epbby~~~~~~~~~~",
"~~~~~~~~~~~eywy&&66zx7:1cSS94@5Zc65:5cvx4144@<67O=*=wq~~~~~~~~~~",
"~~~~~~~~~~~q==q*+5vZv4:1zcc97>4cc96>4cnx51>9Zvz1O0*=qq~~~~~~~~~~",
"~~~~~~~~~~~q0*q*+1xvx5:4zZc96@5cc96:5cZc4<>6nc5<$0=0qq~~~~~~~~~~",
"~~~~~~~~~~~0=*q*+5xvx5:1zZc64@4Zv65:5cvz41>6vx41o=00qq~~~~~~~~~~",
"~~~~~~~~~~~*0*q*@1xvx5:4zZc96<4Zc65:5cvz41>6vx41o0*=q0~~~~~~~~~~",
"~~~~~~~~~~~*=*q*&1xvx4>4xvc95-5cc76:5cvx41,7vz51%=*0qq~~~~~~~~~~",
"~~~~~~~~~~~*;*q=+1cvc4@4zZc97>5Zxz6@1cvx4>,7vx51o0*=qq~~~~~~~~~~",
"~~~~~~~~~~~*=*ee$,xvx4@4xcc97@4ccz6>5zcz<4,6vx51%===q*~~~~~~~~~~",
"~~~~~~~~~~~*00eq%,cvc5@4zZc97-5Zc96:6zz974,7vx4<%;*=q$~~~~~~~~~~",
"~~~~~~~~~~~*2=q0$>xZx4>4xZc97-5cx97:5vZv6<<7nz51**&=0$~~~~~~~~~~",
"~~~~~~~~~~~==*00$>xZx4@4zvc96<4ccz7:5xvx4<,7vz5<&e2=2$~~~~~~~~~~",
"~~~~~~~~~~~q;*q0%<ccc4>4zcc96<4Zcz6:5cvx41>7vv5<&qewq*~~~~~~~~~~",
"~~~~~~~~~~~w=*q0$@xZx5@4zAc96@5cx96@5cvx5<,7vx31*qqqq$~~~~~~~~~~",
"~~~~~~~~~~~q;;q0%>xZc4@4xcZ97>5cc97:5cvz4@>7Zx4<*;=0w$~~~~~~~~~~",
"~~~~~~~~~~~0q0q0%@xZc4@4zZc96-4Zc97:5xvxdhduZx44*0*00~~~~~~~~~~~",
"~~~~~~~~~~~q0q00$4ZZZZxZZSZZZxcSSnZcvZSF!!RJZZz4**;0w~~~~~~~~~~~",
"~~~~~~~~~~~;;qq0%4xxxxccxcxxxxxxxxvxcxxGRkjaxxx5**0;;~~~~~~~~~~~",
"~~~~~~~~~~~#;;00%+@@@@@@@@>@>@@<@>>@:::3IUY3@@--*;0;*~~~~~~~~~~~",
"~~~~~~~~~~~#;0q0%+574@O@5744@X@651@X:55mRk!P644<*;;;*~~~~~~~~~~~",
"~~~~~~~~~~~#;;00$-9Zc4@<zZc94@4cc95@4cvHC&f!Gx43**;;*~~~~~~~~~~~",
"~~~~~~~~~~~#;q0*#-4Zc4@4xZc96<5Zxz6>4cvDC-+TKx44*;;;*~~~~~~~~~~~",
"~~~~~~~~~~~#;q*=;-6cx5@4zZc96@5cc97>5cnnLagTDz4-#=;;*~~~~~~~~~~~",
"~~~~~~~~~~~#;qee;%4Zc4>4zvc96<5cc97@5cZztIUf7x44#;0;*~~~~~~~~~~~",
"~~~~~~~~~~~~;qe;*%4cx4@4zZc96>5cc97>5cAz4;04xx5-#;2;*~~~~~~~~~~~",
"~~~~~~~~~~~~00q**%4Zc4@4zZc95@5cc97>5ccx44@7Zn4+#;q;*~~~~~~~~~~~",
"~~~~~~~~~~~~0q0=*%4cx4>4zcc54>5vc97>4ccz44<6Zz4+$;0;*~~~~~~~~~~~",
"~~~~~~~~~~~~qq0**O5Zc4@79z979>5cc96:5cAx5@<6Zx4+*20;;~~~~~~~~~~~",
"~~~~~~~~~~~~q00**%4cc4>4cSZx6@5ccz6:5cAz44@6Zx4+*q0q*~~~~~~~~~~~",
"~~~~~~~~~~~~0q0**+4Zc4@4xcc96>5vc96:4ccx44@7cz4@;q0q*~~~~~~~~~~~",
"~~~~~~~~~~~~*qq**%5vx4>4zvc96@5cc96<5cvz51>6vx5&yqqq*~~~~~~~~~~~",
"~~~~~~~~~~~~$00=*%4vx4@1zvc95@5cc96@5cvx1<,6vx1%2qq0*~~~~~~~~~~~",
"~~~~~~~~~~~~$;*0$o9ZZxzzZSZvczcZSvc9xASvxzzxSZ6*0qq*=~~~~~~~~~~~",
"~~~~~~~~~~~~$;*;$*zvvvvvvvvvvvZcvvvvvvvvvvvvvvz&000**~~~~~~~~~~~",
"~~~~~~~~~~~~$q*0**-><>,<<<<<<<><<<<<<<,<,<<<,<:%0qq;#~~~~~~~~~~~",
"~~~~~~~~~~~~$q=***&41+O+141>@X@41<@X@141@OX@5<+$0;*;#~~~~~~~~~~~",
"~~~~~~~~~~~~$00*&*1vc1+,zvx94@4xc95O1cvz4@@6vz<&q;*;#~~~~~~~~~~~",
"~~~~~~~~~~~~~=0*=$1vx4>4zZc96@5cc96>5cvz5<<6vx5&0;*=#~~~~~~~~~~~",
"~~~~~~~~~~~~~*0;=#1vx4:1xvx65:5cc96>4cAz1<<6vx1&0=*$#~~~~~~~~~~~",
"~~~~~~~~~~~~~*;**#3vx4>4xvc96:5vc96<4cnx51<6vx1&00*$#~~~~~~~~~~~",
"~~~~~~~~~~~~~***$#<zx5:19vc51:5zc54@4xZz4<,7vx1&*=*##~~~~~~~~~~~",
"~~~~~~~~~~~~~##*$#,97<o>5zz5@O<5z5>X>zz51@O5xz<$#=$##~~~~~~~~~~~",
"~~~~~~~~~~~~~#####.@1O X@,,@  O:,@X O@>@OX @1@X#$*###~~~~~~~~~~~",
"~~~~~~~~~~~~~#####.                            #$###~~~~~~~~~~~~",
"~~~~~~~~~~~~~~~~~~~~~~~~~~~~~~~~~~~~~~~~~~~~~~~~~~~~~~~~~~~~~~~~",
"~~~~~~~~~~~~~~~~~~~~~~~~~~~~~~~~~~~~~~~~~~~~~~~~~~~~~~~~~~~~~~~~"
};
