/* XPM */
static char *result[] = {
/* columns rows colors chars-per-pixel */
"50 50 8 1 ",
"  c #6A6B5D",
". c #746659",
"X c #806F60",
"o c #927D6A",
"O c #7F816F",
"+ c #9E8975",
"@ c #949781",
"# c None",
/* pixels */
"##################################################",
"##################################################",
"###################.....XXXX.#####################",
"################.XXXXXXXXXXXXXX.##################",
"##############.XXXoooooooooXXXXXX.################",
"############.XXoooooo++ooo+ooooXXXX.##############",
"###########.XXooooo++oo+ooooooXXoXXX.#############",
"##########.XXoooo++++++++ooooXooXXXXX.############",
"#########XXXoooo+++o++++o+oooXooXoXXX..###########",
"########XXXoo+o+++++++o+o+ooooXXooXXX...##########",
"########XXoXooo++++++++++oooooooooXXXX..##########",
"#######.XXXoooo+++++++++ooooooooooXXXX...#########",
"#######XXXooooo+++oo+++oooo+ooooooXoXX...#########",
"#######XXoooooo+++oo++oooooooooooooXoX...#########",
"#######XXooooooo+++++ooooooooooooooXoX....########",
"######.XXoooo+ooo++oooooooooooooooXoXX....########",
"######.XXXoo+o+oooooooooXXoooooooXXXXX....########",
"######.XXXooo+oooooooooXooXooooooXXXXX....########",
"######.XXXoooooooooooooXooXooooooXXXXX....########",
"######.XXXXoooooooooooooXXooooooXXXXX.....########",
"#######XXXXooooooooooooooooooooXXXXXX.....########",
"#######.XXXXooooooooooooooooooXXXXXX......########",
"#######..XXoXXoXoooooooooooXXoXXXXXX.....#########",
"########.XXXooXXXoooooooXXXooXXXXXX.....##########",
"########..XXXXXXXXXXXXXXXXXXXXXXXX......##########",
"#########..XXXXXXXXXXXXXXXXXXXXXX......###########",
"##########...XXXXXXXXXXXXXXXXXXX......############",
"###########...XXXXXXXXXXXXXXXXX......#############",
"########### ...XXXX.XXXXXXX.X....... #############",
"###########  .....XXXXX....X.......  #############",
"########### O ...................    #############",
"###########OOO .................     #############",
"###########@@O   .............   OO  #############",
"##########@@@   O   .....    O   O@   ############",
"##########@@O  OOO           O  O@@   ############",
"##########@@@O O@O   OO     OO  O@@ O ############",
"##########@@@O @@@O  OOO   OOOO O@@ O ############",
"##########O@@O @@@OO OOO   OO@O O@@ O ############",
"###########@@O @@@OO O@OO  O@@O O@O O ############",
"###########O@O O@@OO O@@O O@@@O O@O O ############",
"###########O@O O@@OO O@@O O@@@O O@ O #############",
"########### @O OO@OO O@@OO @@O  @O O #############",
"############O@O O@@O  O@OO O@O OOO O #############",
"############ OO OOOOO O@OO @O  OO O ##############",
"############# O  OOOO  OO  OO OOOO ###############",
"##############     OO  OO  O O O  ################",
"################     O  O O      #################",
"#####################        #####################",
"##################################################",
"##################################################"
};
