/* XPM */
static char *result[] = {
/* columns rows colors chars-per-pixel */
"45 74 16 1 ",
"  c #08090D",
". c #14161E",
"X c #3E332A",
"o c #493C32",
"O c #554C3C",
"+ c #5B4A3D",
"@ c #242940",
"# c #5F1166",
"$ c #746344",
"% c #89744F",
"& c #BBA160",
"* c #DDBF78",
"= c #871C92",
"- c #B937C5",
"; c #EECF84",
": c None",
/* pixels */
":::::::::::::::::::::::::::::::::::::::::::::",
":::::::::::::::::::::::::::::::::::::::::::::",
":::::::::::::::::::::::::::::::::::::::::::::",
":::::::::::::::::::::::::::::::::::::::::::::",
":::::::::::::::::::::::::::::::::::::::::::::",
":::::::::::::::::::::-::::=::::::::::::::::::",
":::::::::::::::::::::==:::-=:::::::::::::::::",
":::::::::::::::::=-==#-:::-=::=::::::::::::::",
":::::::::::::::::::=-=#-:-=##==::::::::::::::",
":::::::::::::::-:::#=-=-#-=#=-#::::::::::::::",
":::::::::%%%:::=-==#=-=#-=#=-=#::::::::::::::",
"::::::::O$%%%:::=--=#=##-#=-=#--==:::::::::::",
"::::::::O%$%%::=##=-#++o+X++#-==##:::::::::::",
"::::::::O$O$%::#--##+oo+oXXo+#=#:::::::::::::",
":::::::::$O$O:::#=-+oXXXXXXXX+#===:::::::::::",
"::::::::o$$O:::::##oXX     XXX#-#::::::::::::",
"::::::::X$+$o:*;*##XX ..... XX&*;;:::::::::::",
"::::::::oXo$X:::&&*X ......  **;:::::::::::::",
"::::::::Xoo$X:::;*&X .....   o&&*;:::::::::::",
"::::::::ooX$X::::&&X .       X*;:::::::::::::",
"::::::::oX$$::::;;*&        o&&:;::::::::::::",
"::::::::oX$$::::::&*        o*&::::::::::::::",
"::::::::ooX$::::::*&X       X&;::::::::::::::",
"::::::::o+XO:::::;.&&      X&::;:::::::::::::",
"::::::::o+oX:@::......     ..::::::::::::::::",
"::::::::oo+X@@@@.@@@...   ...@:::::::::::::::",
"::::::::oo+@@@@..@@@@........@.@:::::::::::::",
"::::::::ooo@@@@.@@@@@@.......@.@@::::::::::::",
":::::::::oo@@@..@@@@@@@......@.@@::::::::::::",
":::::::::OX@@.@.@@@@@@@@@....@@@@::::::::::::",
":::::::::OX@@.@@.@@@@@@@@@@@@@@@@@:::::::::::",
":::::::::%$.@..@.@@@@@@@@@@@@@@@@@:::::::::::",
":::::::::$O....@.@@@@@@@@@@@@@@@@@:::::::::::",
":::::::::$O....@@.@@@@@@@@@@@@@@@@:::::::::::",
":::::::::OO.....@.@@@@@@@@@@@@@@@@:::::::::::",
":::::::::O$.....@.@@@@@@@@@@@@@.@@:::::::::::",
"::::::::::O.......@@@@@@@@@@@@@@@@:::::::::::",
"::::::::::O%......@.@@@@@@@@@@..@@@::::::::::",
"::::::::::O$......@...@@@@@@@@.@@@@::::::::::",
":::::::::O%$......@....@@@@@@...@@@::::::::::",
":::::::::$$O......@....@@@@@@...@@@::::::::::",
":::::::::$OO...@..@.....@@@@@.@.@@@::::::::::",
":::::::::O$$...@..@.....@@@@..@.@@@::::::::::",
":::::::::$OO...@..@.....@@@@..@.@@@::::::::::",
":::::::::OO%$..@@.@......@@@..@.@.:::::::::::",
":::::::::O%$O..@@.@......@@@..@...:::::::::::",
":::::::::O$O:..@@...@.....@@@.@@..:::::::::::",
":::::::::OOO:..@@...@.....@@@.@@..:::::::::::",
"::::::::::O$:..@@@..@@.....@@.@@..:::::::::::",
":::::::::O$$:..@@@..@@@....@@.@@..:::::::::::",
":::::::::$$O:..@@@..@@@....@@.@@.::::::::::::",
":::::::::OOO:..@@@..@@@.....@.@..::::::::::::",
":::::::::OOO:..@@@...@@.....@.@..::::::::::::",
"::::::::::OO:..@@@@..@@@......@..::::::::::::",
"::::::::::OO:...@@..@@@@@.......:::::::::::::",
"::::::::::OO::...@..@@@@@...@...:::::::::::::",
"::::::::::OO::....@.@@@@@..@....:::::::::::::",
"::::::::::O::::...@..@@@@......::::::::::::::",
"::::::::::O:::::::...@@@@.....X::::::::::::::",
"::::::::::::::::::....@@@@..XXX::::::::::::::",
"::::::::::::::::::X...@@@@.XXXX::::::::::::::",
"::::::::::::::::::XXXX@@@XXXoX:::::::::::::::",
":::::::::::::::::X+ooX:::::XXX:::::::::::::::",
":::::::::::::::::Xo++o:::::::::::::::::::::::",
"::::::::::::::::::Xo+::::::::::::::::::::::::",
":::::::::::::::::::::::::::::::::::::::::::::",
":::::::::::::::::::::::::::::::::::::::::::::",
":::::::::::::::::::::::::::::::::::::::::::::",
":::::::::::::::::::::::::::::::::::::::::::::",
":::::::::::::::::::::::::::::::::::::::::::::",
":::::::::::::::::::::::::::::::::::::::::::::",
":::::::::::::::::::::::::::::::::::::::::::::",
":::::::::::::::::::::::::::::::::::::::::::::",
":::::::::::::::::::::::::::::::::::::::::::::"
};
