/* XPM */
static char *result[] = {
/* columns rows colors chars-per-pixel */
"45 74 20 1 ",
"  c #08090D",
". c #14161E",
"X c #392D24",
"o c #3E332A",
"O c #521D1B",
"+ c #493C32",
"@ c #554C3C",
"# c #5B4A3D",
"$ c #242940",
"% c #5F1166",
"& c #746344",
"* c #6D6D6D",
"= c #89744F",
"- c #BBA160",
"; c #DDBF78",
": c #871C92",
"> c #B937C5",
", c #EECF84",
"< c #C4C4C3",
"1 c None",
/* pixels */
"111111111111111111111111111111111111111111111",
"111111111111111111111111111111111111111111111",
"111111111111111111111111111111111111111111111",
"111111111111111111111111111111111111111111111",
"111111111111111111111111111111111111111111111",
"111111111111111111111111111111111111111111111",
"111111111111111111111111111%11111111111111111",
"111111111111111111111111%1%>11111111111111111",
"1111111111111111111111%1>%:>1:111111111111111",
"1111111111111111111111>%>%>%:>111111111111111",
"11111111111111111111%1:>:>%:>:111111111111111",
"11111111111111111111>>%:>:%>:%111111111111111",
"11111111111111111111%>:%:>:>%:111111111111111",
"11111111111111111111%:>::%o++1111111111111111",
"11111111111111111111%::>%o+##o111111111111111",
"11111111111111111111:%;%oo+oO#o11111111111111",
"1111111111111111111:::%;oooO+O#11111111111111",
"11111111111111111111::;,ooO+##Oo1111111111111",
"111111111111111111111-,-;+#o  o+1111111111111",
"111111111111111111111,;;,o+###+#111111===1111",
"111111111111111111111,-,-oo+#o##11111@&===111",
"111111111111111111111-;-;#oo<+ +11111@&&&=111",
"11111111111111111111-1-,-#oo<##1111111@&&@111",
"111111111111111111111.--,-#o<*<1111111&@@1111",
"111111111111111111$$$-..-,;+#<*1111111#&&1111",
"11111111111111111.$$$$$$-.,o+##111111#+&&+111",
"1111111111111111.$$$$$$-..-.oo1111111#+&#++11",
"1111111111111111.$$$$$$$$....11111111+@#++o11",
"111111111111111$$$$$$$$..$.....111111+&oooo11",
"111111111111111$$$$$$$$...$.....11111+@##++11",
"11111111111111$.$$$$.$$$......$.$$.1++@++o111",
"11111111111111$$$$$$...$.....$$.$.++#+@@&1111",
"1111111111111$$$$$$....$$....$.$.+##+o&@&1111",
"1111111111111$$$$$$....$$...$$.$+++#++&@=1111",
"1111111111111$$$$.$$....$$$$$$.$+++o1o&@&1111",
"1111111111111$$$$.$$....$$$$$$.$oo.111@=&1111",
"1111111111111$$$$..$....$$$$$$.$..1111@=@1111",
"1111111111111$$$$..$....$$$$$$.$..1111@&@1111",
"1111111111111$$$$$......$$$$$..$.11111=&@1111",
"1111111111111$$$$$..$....$$.$..$.11111&@@1111",
"1111111111111$$$$$..$....$$$...$.11111&@=1111",
"1111111111111$$$$$..$$....$$$.$..11111@@&1111",
"1111111111111$$$$$$..$$.......$.1111111@@=111",
"1111111111111$$$$$$..$$.......$.1111111@=&111",
"111111111111$$$.$$$..$$$.....$$.1111111@&@111",
"111111111111$$$.$$$...$$.....$$.1111111=&1111",
"111111111111$$$.$$$$..$$$....$..1111111&@1111",
"111111111111$$$.$$$$..$$$$...$..1111111@@@111",
"11111111111$$$$..$$$...$$$$$.$...11111@&=@111",
"11111111111$$$$..$$$...$$$..$....11111@@@1111",
"11111111111$$$$...$$....$$$$....$111111@=@111",
"11111111111$$$$...$$....$$......111111@=&@111",
"11111111111$$$$...$$............1111111@@1111",
"1111111111...$$...$$...........11111111@&@111",
"1111111111...$$....$$.........11111111@=@@111",
"1111111111...$$....$..$......11111111@=&@1111",
"1111111111...$$........$....111111111@@@@1111",
"1111111111...$.............11111111111@@@1111",
"1111111111................1111111111111@@1111",
"11111111111..1..........111111111111111@@1111",
"111111111111111+....+XXXX11111111111111@@1111",
"111111111111111++++++XXXXX1111111111111@@1111",
"111111111111111++++##+XXXXX111111111111@11111",
"1111111111111111++##+#+1111111111111111111111",
"1111111111111111+++##+#1111111111111111111111",
"11111111111111111++++111111111111111111111111",
"111111111111111111111111111111111111111111111",
"111111111111111111111111111111111111111111111",
"111111111111111111111111111111111111111111111",
"111111111111111111111111111111111111111111111",
"111111111111111111111111111111111111111111111",
"111111111111111111111111111111111111111111111",
"111111111111111111111111111111111111111111111",
"111111111111111111111111111111111111111111111"
};
