/* XPM */
static char *result[] = {
/* columns rows colors chars-per-pixel */
"45 74 22 1 ",
"  c #08090D",
". c #14161E",
"X c #3E332A",
"o c #521D1B",
"O c #493C32",
"+ c #652723",
"@ c #712B28",
"# c #554C3C",
"$ c #5B4A3D",
"% c #242940",
"& c #5F1166",
"* c #746344",
"= c #6D6D6D",
"- c #89744F",
"; c #BBA160",
": c #DDBF78",
"> c #871C92",
", c #B937C5",
"< c #EECF84",
"1 c #C4C4C3",
"2 c gray82",
"3 c None",
/* pixels */
"333333333333333333333333333333333333333333333",
"333333333333333333333333333333333333333333333",
"333333333333333333333333333333333333333333333",
"333333333333333333333333333333333333333333333",
"333333333333333333333333333333333333333333333",
"333333333333333333333333333333333333333333333",
"333333333333333,3333>333333333333333333333333",
"333333333333333>>333,>33333333333333333333333",
"33333333333>,>>&,333,>33>33333333333333333333",
"3333333333333>,>&,3,>&&>>33333333333333333333",
"333333333,333&>,>,&,>&>,&33333333333333333333",
"333333333>,>>&>,>&,>&>,>&33333333333333333333",
"3333333333>,,>&>&&,&>,>&,,>>33333333333333333",
"333333333>&&>,&$$O$X$$&,>>&&33333333333333333",
"333333333&,,&&$OO$OXOO$&>&3333333333333333333",
"3333333333&>,$O@XO$OX@X$&>>>333---33333333333",
"33333333333&&O@ooXOX@ooX&,&333---*#3333333333",
"333333333<<:;@XOXo$+XOXo&&:<:3--*-#3333333333",
"33333333333<::O  X$X  O;:;;333-*#*#3333333333",
"333333333<:;;O$$$X$X$$$O;:<333#*#*33333333333",
"33333333333<:XO$X$O$X$OX;;33333#**33333333333",
"3333333333<3;;OOO X OOO;:<<3333*$OX3333333333",
"333333333333;:O2X$$$X2O:;33333$$$$O3333333333",
"333333333333<;X1=1=1=1X;:33333XXXOX3333333333",
"33333333333<%%;X1=1=1X;;.<3333$$$$O3333333333",
"33333333333%%%..X$$OX...%.3333XXXOX3333333333",
"3333333333%%%%...$O$...%%%.3333OOXXO333333333",
"3333333333%%.%%.......%%%%..333*-#XO333333333",
"3333333333%%.%%.......%%%%%...3#*#O$333333333",
"3333333333%%.%%%.....%%%.%%%.%.#*-O$333333333",
"3333333333%%.%%%%%%%%%%%%.%%%%.#*-OO333333333",
"333333333%%%..%%%%%%%%%%%.%%%..-#*OX333333333",
"333333333%%%..%%%%%%%%.%.%%%...*#*OX333333333",
"333333333%%%..%%%%%%%..%.%%..X.*-#X3333333333",
"333333333%%%%..%%%%...%..%%..XX#-#X3333333333",
"333333333%%.%........%%..%...XO#*#X3333333333",
"333333333%%.%.......%%...%...XO#*-X3333333333",
"333333333%%.%%.....%%%..%%....X##*33333333333",
"33333333%%%.%%%...%%%...%%.....-#*33333333333",
"33333333%%%.%%%%.%%%%...%%.....*##33333333333",
"33333333%%%.%%%%%%.%....%%....*#*#33333333333",
"33333333%%%..%%%%..%....%%....-##333333333333",
"33333333%%%..%%%..%....%%%....*-#333333333333",
"33333333%%%..%....%....%.%....#*#333333333333",
"33333333%%%...........%%.%.....*-#33333333333",
"333333333.%...........%%.%.....#**33333333333",
"333333333..%.........%%%.%....*##*33333333333",
"333333333..%.........%%%.%....#**#33333333333",
"333333333..%.........%%%.%...#-##*33333333333",
"333333333..%........%%%%.%...#*-##33333333333",
"333333333..%........%%%%.%....#*-#33333333333",
"3333333333..%.......%%%%.%....3#*#33333333333",
"3333333333..%......%%%%..%....3###33333333333",
"3333333333..%......%%%%.......3*#333333333333",
"3333333333........%%%%%.......3**#33333333333",
"33333333333.......%%%%%.......3#**33333333333",
"33333333333.......%%%%%.......3###33333333333",
"33333333333.......%%%%%.......3###33333333333",
"333333333333......%%%%........3##333333333333",
"3333333333333.....%%%%...33...3##333333333333",
"33333333333333X..%%%%....333.33##333333333333",
"333333333333$OXX.%%%%...X333.33##333333333333",
"3333333333$$OOOXXX%%%XXXX3333333#333333333333",
"333333333O$O$OXX33333XOO$X333333#333333333333",
"3333333333X$XX3333333O$$OX3333333333333333333",
"3333333333333333333333$OX33333333333333333333",
"333333333333333333333333333333333333333333333",
"333333333333333333333333333333333333333333333",
"333333333333333333333333333333333333333333333",
"333333333333333333333333333333333333333333333",
"333333333333333333333333333333333333333333333",
"333333333333333333333333333333333333333333333",
"333333333333333333333333333333333333333333333",
"333333333333333333333333333333333333333333333"
};
