/* XPM */
static char *result[] = {
/* columns rows colors chars-per-pixel */
"60 60 90 1 ",
"  c #1A1627",
". c #1D1826",
"X c #1E1F2A",
"o c #211A2A",
"O c #1E2029",
"+ c #1F2832",
"@ c #212226",
"# c #282C25",
"$ c #23262A",
"% c #262A29",
"& c #292E29",
"* c #2C3226",
"= c #323524",
"- c #343921",
"; c #3E2936",
": c #23353C",
"> c #4C303C",
", c #3C472F",
"< c #3F4B2D",
"1 c #2F473F",
"2 c #31493D",
"3 c #515E1F",
"4 c #53611E",
"5 c #5A651F",
"6 c #5C6A1D",
"7 c #687B13",
"8 c #64741C",
"9 c #67791A",
"0 c #697C19",
"q c #404D2C",
"w c #4A5525",
"e c #4F5B21",
"r c #545D25",
"t c #566221",
"y c #5A6627",
"u c #5D6A24",
"i c #6C7D25",
"p c #66752A",
"a c #273E41",
"s c #283E41",
"d c #533440",
"f c #6A3C48",
"g c #274042",
"h c #2C4F4D",
"j c #2D5341",
"k c #315F45",
"l c #30534E",
"z c #2F5753",
"x c #305954",
"c c #38754F",
"v c #3B7D4F",
"b c #326352",
"n c #366C52",
"m c #377150",
"M c #7D464F",
"N c #8B4B55",
"B c #A0585B",
"V c #BD6962",
"C c #6E8215",
"Z c #758C1C",
"A c #7F9A1A",
"S c #6E8222",
"D c #718622",
"F c #758B25",
"G c #76872A",
"H c #778A2C",
"J c #7A8E2A",
"K c #7E9426",
"L c #7C9128",
"P c #63AB3F",
"I c #3F814D",
"U c #42864C",
"Y c #4C9148",
"T c #539845",
"R c #5CA341",
"E c #859F1F",
"W c #9ABC0D",
"Q c #8FAD17",
"! c #87A11E",
"~ c #89A41C",
"^ c #8DAA19",
"/ c #90AE16",
"( c #93B313",
") c #97B810",
"_ c #809724",
"` c #839B22",
"' c #9DC10B",
"] c #A4CC05",
"[ c #A0C609",
"{ c #A1C808",
/* pixels */
"`LJ~_!!_K^)~K`iSO:bvvvvIIIRPPPPPPRIIIIIvvbg+SSZK~^')KK~``K_`",
"KEK`H_`/K]`K`6XmcmvvvvYRRRPPPPPPPPRRRYIIvmmmcOeAQK((K^LK!LL~",
"(E__JK/~/]KK4$kvvvvvTTRPPPPPPPPPPPPPRRRRvvvvvk+eL~/~K!K!EL/K",
"~J~(KJ^KWKKw@jIIvvvTPPPPPPPPPPPPPPPPPPRPYIvvII2Ow~AK``L`!~``",
"~`^_K`~_/G7OjvvvvIYPPPPPPPPPPPPPPPPPPPPPRYIIIIvhOtJK/!K~!QK(",
"`H~JH_!`^COkIvvvvYPPPPPPPPPPPPPPPPPPPPPPPRUvvvvIkOy^K`~K`J^`",
"``!K`^_~8OkvvvvvvYPPPPPPPPPPPPPPPPPPPPPPPPRIvvvvvkOuLKKK)J!`",
"K(`^!~^wOavvvvvvvTPPPPPPPPPPPPPPPPPPPPPPPPTIvvvvvvg+wLH'K`!L",
"```~`!w@gnvvvvvvIIRPPPPPPPPPPPPPPPPPPPPPRRIvvvvvvvng@wE!J`KL",
"!H~_`(@:nvvvvvvvIIIRPPPPPPPPPPPPPPPPPPPPRIIvvvvvvvvn:O~`LEKJ",
"[J`KQF@gvvvvvvvvIvvIRPPPPPPPPPPPPPPRPRPRIIvvvvvvvvvvgOAKKK~K",
"`__~S@gbIvvvvvvvvvIIIITPPPPPPPPPPPPRPRUUIIvvvvvvvvvvng@iL~J'",
"__`(GsbvvvvvvvvvvvvvvvIYYYRPPPPPRRYYUIvvIvvvvvvvvvvvvbgG``^(",
"K_!i-xcvvvvvvvvvvvvvvvvvvcYTTTTTTIIIIvvvIvvvvvvvvvvvvmx*iK``",
"LJ~w+zcvvvvvvvvvvvvvvvvvvvvvvvvvvvvvIIvvvvvvvvvvvvvvImz+wJLK",
"K!/wxcvvvvvvvvvvvvvvvvvvvvvvvvvvvvvvvvvvvvvvvvvvvvvvvvmxwJL`",
"L^,OxcvvvvvvvvvvvvvvvvvvvvvvvvvvvvvvvvvvvvvvvvvvvvvvvIcxO,L!",
"KQ*+nvvvvvvvvvvvvvvvvIvvvvvvvvvvvvvvvvvvvvvvvvvvvvvvvvvn+-'L",
"~6+gIvvvvvvvvvvvvvvvvvvvvvvvvvvvvvvvvvvvvvvvvvvvvvvvvvvvg#t!",
"AO:bvvvvvvvvvvvvvvvvvvvvvvvvvvvvvvvvvvvvvvvvvvvvvvvvvvvvn:O~",
"KO:mvvvvvvvvvvvvvvvvvvvvvvvvvvvvvvvvvvvvvvvvvvvvvvvvvvvvb:OK",
"^O:bvvvvvvvvvvvvvvvvvvvvvvvvvvvvvvvvvvvvvvvvvvvvvvvvvvvvb:@F",
"K22cvvvvvvvvvvvIvvvvvvvvvvvvvvvvvvvvvvvvvvvvvvIvvvvvvvvvm22~",
"4hnIvvvvvvvvvvvvvvvvvvvvvvvvvvvvvvvvIvvvvvvvvvvvvvvvvvvIImlw",
" gnvvvvvvvvvvvvvvIvvvvvvvvvvIvvvvvvvvvvvvvvvvvvvvvvvvvvvvng ",
" gnvvvvvvvvvvvvvvvvvvvvvvvvvvvvvvvvvvvvvvvvvvvvvvvvvvvvvIng ",
" gmvvvvvvvvvvvvvvvvvvvvvvvvvvvvvvvvvvvvvvvvvvvvvvvvvvvvvvng ",
" gnIvvvvvvvvvvvvvvvvvvvvvvvvvvvvvvvvvvvvvvvvvvvvvvvvIvvvvng ",
" gnvvvvIvvvvvvvvvvvvvvvvvvvvvvvvvvvvvvvvvvvvvvvvvvvvvvvvvng ",
" gnIvvvvvvvvvvvvvvvvvvvvvvvvvvvvvvvvvvvvvvIvvvvvvvvvvvvvIng ",
" gnvvvvvvvvvvvvvvvvvvvvvvvvvvvvvvvvvvvvvvvvvvvvvvvvvvvvvvng ",
"whnvvvvvvvvvvvvvvvvvvvvvvvvvvvvvvvvvvvvvvvvvvvvvvvvvvvvvInh3",
"/2hmvvvvvvvvvvvvvvvvvvvvvvvvvvvvvvvvvvvvvvvvvvvvvvvvvvvvmh2K",
"A+:bvvvvvvvvvvvvvvvvvvvvvvvvvvvvvvvvvvvvvvvvvvvvvvvvvvvvb:OA",
"EO:bcvvvvvvvvvvvvvvvvvvvvvvvvvvvvvvvvvvvvvvvvvvvvvvvvvvvb:@^",
"AO:zbvvvvvvvvvvvvvvvvvvvvvvvvvvvvvvvvvvvvvvvvvvvvvvvvIvxz:@K",
"_t%:zbcvIvvvvvvvvvvvvvvvIvvmbbxbmvvvvvvvvvvvvvvvvvvvvcbz:%5K",
"KQ-+zzbnmvvvvvvvvvvvvvvvnnnbzzzzbnnnvIvvvvvvvvvvvvvmnbzz+-EK",
"!`-+zzzzbmcvvvvvvvvvvcmnxzzzzzzzzzzznmmvvvvvvvvvvcmbzzzz+-KL",
"!J-+hzzzzzxmvvvvvvvcvbzzzzzzzzzzzzzzzzbvvvvvvvvvmzzzzzzh+-LJ",
"'JF<+hxzzzzxxbvvvvcbbzzzzzzxzzzzzzzzzzxbbmIvvIbxxzzzzxh+<G^_",
"!``e hxzzzzzzxbbnbbzzzzzzzzzzzzzzzzzzzzzzbbbbbxzzzzzzxh w~H'",
"KK`0&ghxzzzzzzzzzzzzzzzzzzzzzzzzzzzzzzxzzzzzzzxzzzzzxha%u`^(",
"KK!KZ gzzzzzzzzzzzzzzzzzzzzzzzzzzzzzzzzzzzzzzxzzzxzzx1 p`K``",
"LL~KZOgzzzzzzxzzzzxzzzzzzzzzzzzzzzzzzzzzzzzzzzzzzzzzzgOZLLLL",
"L!(`Ky$gxzzzzzzzzzzzzzzzzzzzxzzzzzzzzzzzzzxzzzzzzzzxg$8L_JL`",
"LQK``L5@:xzzzzzzzzzzzzzzzzzzzzzzzzzzzzzzzzzzzzzzxzx:@r!`KGLE",
"`/KKK/!wOgzxxzzzzzzzzzxzzzzzzzzzzzzzzzzzzzzzzzzxxzg@e``~J`{L",
"~~L~~K`LeOghhzzzzzzzzzzzzzzzzzzzzzzzzzzzzzzzzzxhhgOrQ`/_~[``",
"E~QEKK_KJ9OX:zzzzzzzzzzzzzxzzzzzzzzzzzzzzxzzzzz:oOC/`~`E~W~^",
"EK~K_KK~'Lyp&o+hxxxxzzzzzzzzzzzzxzzzzzzzxxxxh+o&u0~`E/_QW~^_",
"Q~L~K!^^)~'_u=q<a++:zxxxxxzzzzzzzzxxxxxz:++s<<=8K~{`~H^`)H`J",
"K^!L/!K'^(L!`LK/-%%*gsgggghxxxxxxhggagaj&%$=K/``_WJ^~L~~/`~~",
"/~!~L`~)(/(KKL~L``Q_8$ooooghhhhhhgoo X$9/__K~K``/``)^!E``/_`",
"~!!Q`/)/^!LL_E`L```SX>fM>>>;    ;d>dMf> p___`KK_`_``H`_K~`~^",
"!`~`^K/~_^LELK^LLJwOfBBNNddff;;ffd>MNBBf$tLKQKKKKJ^{K_KJ~L~Q",
"~^EEL~_/EE!L^^J^^Kr.fBBNfd>MBMMBM>dfNBBfow^~J~^K^~W)J_^_`/``",
"/~__L(_~_^_^_`~~`^wo>fMf;;>MBBBBM>;;fMf>o3``~^_^J`]J]`H_/J_/",
"K!KL^KE/^K!E`~/EG~t.;>>;..;fBVVBf;..;>>;.t`~Q`G~`)W'E`~E^J^W",
"!EKK^K^!!K^H/~KE!!KC.o @DD@dBVVBdOZS@ o.8G/E``!!`)~'_`E``/~E"
};
