/* XPM */
static char *result[] = {
/* columns rows colors chars-per-pixel */
"96 96 6 1 ",
"  c #5E4639",
". c #544035",
"X c #705444",
"o c #674D3F",
"O c #775A48",
"+ c white",
/* pixels */
"    ........XXXXXXXXXo          OOXOOXOOOoXXXXXXXXXXXXXXXXXXXXOOOOXOOXOOOoXXXXXOXXXXXXXXXXXXXXOO",
"   . oo  oooXooooooXoooX ooooo  oXXXXXXXXXooXooooooXoooXXXOOOOXXoXXXXXXXXXooXooooooXoooXXXOOOOXX",
"oo    oo   oXXXX   .o   ooooooooXoXXXXXOOOXXXXXXXXXXXXXXXXXXXOOXXoXXXXXOOOXXXXXXXXXXXXXXXXXXXOOX",
"o       oo  XXXXX.. ooo   ooo   XXXOOOOXXXXXXXXXXXooooXXoooooXXXXXXOOOOXXXXXXXXXXXooooXXoooooXXX",
"   ooo   ooo    oo o   .      .oXXOXooXXXoooXXOOOoXXXXoooOOXXXXXXXOXooXXXoooXXOOOoXXXXoooOOXXXXX",
"  ooooo   oooOXX  ooooo ......  oXXXXXXXXXXXOOXXXXXXXOOooooooooooXXXXXXXXXXXOOXXXXXXXOOooooooooo",
" o         OOOOOoo     ooooooo  XXXXooXXXXOOOOOOXXXXXXXXXXXXXXXXXXXXooXXXXOOOOOOXXXXXXXXXXXXXXXX",
"            ooo  ..  oo   o   ooXXXXXXooooXXXoXXXXXoooXXXXXXooXXXXXXXXooooXXXoXXXXXoooXXXXXXooXX",
"   ooooo   ooooXo     ...  .... oooXXXXXXXXXXXOXXXXXXXooooooXXXooooXXXXXXXXXXXOXXXXXXXooooooXXXo",
"   oo      XXXXX   oo    .....  XXXXXXXXOOoXXXXXooooXXXXXXXXOOOXXXXXXXXXOOoXXXXXooooXXXXXXXXOOOX",
" oo      ooooo .. ooo           oooooOOOXXXXoooXXXXXXOOOOOoOXooooooooOOOXXXXoooXXXXXXOOOOOoOXooo",
"  .    o   ooooooooooooo        OXXXXXXXXXXXXXXoooOOOOOOXXXXXXXX  . XXXXXXXXXXXoooOOOOOOXXXXXXXX",
"   ... oo ...        oo  ooooooooooooooXXXooooXXXXXOOOOXXoooooXXo oooooXXXooooXXXXXOOOOXXoooooXX",
"oo ooooooo  ..     ..  oooo     XXXXXXXooXXXXXXXXooXXXXXoXXXXXoooo ooXXooXXXXXXXXooXXXXXoXXXXXoo",
" oo       .........      oooo   XXoooooOOOXXXooOOOOoooooXXXoooXX ooooooOOOXXXooOOOOoooooXXXoo   ",
"   ooo oo                   ooo XXXXXXOXXXXoOXXXXXXXXXXXOXXXXXXX   ooo XXXXoOXXXXXXXXXXXOXXXXXXX",
"  oooooooo      oo       ooo    XXXXXooooooooooXXXXXXXOOXXXXoooo  oooooooooooooXXXXXXXOOXXXXoo  ",
"oooo     ooo       o  ooooooo   XooooXXXOOXXXXXooooooXXXXXXXXXXXXooooXXXOOXXXXXooooooXXXXXXXo   ",
"o oooooooo       o  o          oo oooooooo       o  o          oo oooooooo       o  o          o",
"   ........   ooo    oo        o   ........   ooo    oo        oXoo........   ooo    oo        o",
"     .....    o    ........          .....    o    ........         XXoo..    o    ........     ",
"oooo  o   o     oo  ....       ooooo  o   o     ooXXXXOOOOOoXXOoooooXXXXX o     oo  ....       o",
"ooooo    oooooooo ..       ooOXXXXooo    oooXXXoo ..   XoXXXoOXXXXXXXX   oooooooo ..       oo oo",
"  oooo  ooo    ooo  oXXXXXXXXXXXoooXoOOXXXXXooXXXXXXXXXXXXXXXXXXoooXoOOXXoo    ooo  oo     ooo  ",
"oo    ..     ..   oXXXXXooXXXXXXOXXXXXXOOOOXXXXXoooXXXXXooXXXXXXOXXXXXXOOOOXXXXX  oo           o",
"ooo  o  ..... oooXXXOOOXXXXooXooooOOOXXXXXOOOoooXXXXOOOXXXXooXooooOOOXXXXXOOOoooo XXoo ooooooooo",
" oooooo    oooXXOXXXXXXXXOOXXoXXoOXXXooooXXXXXXXOXXXXXXXXOOXXoXXoOXXXooooXXXXXXXOX   ooo        ",
".        o  ooo  oooXXXXOXXXXXXXXoXXXXXXXXXooOOOXXooXXXXOXXXXXXXXoXXXXXXXXXooOo  oo     ........",
" ooooo  ooo  ooo  XXXoOOXXXXXXXXXXoXoooooXXXXooooXXXXoOOXXXXXXXXXXoXoooooXXXXooo  o  ooo  ..... ",
"o  . ooo    . XXXooooXXXXXXXXXXoXXXXXXXXXXXXXXXXXooooXXXXXXXXXXoXXXXXXXXXXXXXXXXXo oo          o",
"ooo .   ooXXXXXoXXXXXXoooooooXXXooXXOOOOooXXXXXoXXXXXXoooooooXXXooXXOOOOooXXXXXoXXXX o        oo",
"  ....      OooXOOOXXXXOOOOXXXooXXXXXXXXXXOOOooXOOOXXXXOOOOXXXooXXXXXXXXXXOOOooXOOO   ooooooooo ",
"    ........XXXXXXXXXXXXXXXXXXOOOOXOOXOOOoXXXXXXXXXXXXXXXXXXXXOOOOXOOXOOOoXXXXXXXXXXXo          ",
"   . oo  oooXooooooXoooXXXOOOOXXoXXXXXXXXXooXooooooXoooXXXOOOOXXoXXXXXXXXXooXooooooXoooX ooooo  ",
"oo    oOOOXXXXXXXXXXXXXXXXXXXOOXXoXXXXXOOOXXXXXXXXXXXXXXXXXXXOOXXoXXXXXOOOXXXXXXXXXXXX  oooooooo",
"o     OXXXXXXXXXXXooooXXoooooXXXXXXOOOOXXXXXXXXXXXooooXXoooooXXXXXXOOOOXXXXXXXXXXXooooX   ooo   ",
"   oooXXXoooXXOOOoXXXXoooOOXXXXXXXOXooXXXoooXXOOOoXXXXoooOOXXXXXXXOXooXXXoooXXOOOoXXXXoooO    .o",
"  oXXXXXXXXXOOXXXXXXXOOooooooooooXXXXXXXXXXXOOXXXXXXXOOooooooooooXXXXXXXXXXXOOXXXXXXXOOoooo...  ",
" XXXooXXXXOOOOOOXXXXXXXXXXXXXXXXXXXXooXXXXOOOOOOXXXXXXXXXXXXXXXXXXXXooXXXXOOOOOOXXXXXXXXXXXXXo  ",
"   XXXooooXXXoXXXXXoooXXXXXXooXXXXXXXXooooXXXoXXXXXoooXXXXXXooXXXXXXXXooooXXXoXXXXXoooXXXXXXo oo",
"   ooXXXXXXXXXOXXXXXXXooooooXXXooooXXXXXXXXXXXOXXXXXXXooooooXXXooooXXXXXXXXXXXOXXXXXXXooooooX.. ",
"   ooXXXOOoXXXXXooooXXXXXXXXOOOXXXXXXXXXOOoXXXXXooooXXXXXXXXOOOXXXXXXXXXOOoXXXXXooooXXXXXXXXOO  ",
" ooooOOOXXXXoooXXXXXXOOOOOoOXooooooooOOOXXXXoooXXXXXXOOOOOoOXooooooooOOOXXXXoooXXXXXXOOOOOo     ",
"  XXXXXXXXXXXXXoooOOOOOOXXXXXXXXOXXXXXXXXXXXXXXoooOOOOOOXXXXXXXXOXXXXXXXXXXXXXXoooOOOOOOXXXXXXX ",
" ooooooXXXooooXXXXXOOOOXXoooooXXoooooooXXXooooXXXXXOOOOXXoooooXXoooooooXXXooooXXXXXOOOOXXooooooo",
"ooXXXXXooXXXXXXXXooXXXXXoXXXXXooXXXXXXXooXXXXXXXXooXXXXXoXXXXXooXXXXXXXooXXXXXXXXooXXXXXoXX     ",
" oo oooOOOXXXooOOOOoooooXXXoooXXXXoooooOOOXXXooOOOOoooooXXXoooXXXXoooooOOOXXXooOOOOoooooXXXoo   ",
"   ooXOXXXXoOXXXXXXXXXXXOXXXXXXXXXXXXXOXXXXoOXXXXXXXXXXXOXXXXXXXXXXXXXOXXXXoOXXXXXXXXXXXOXX ooo ",
"  oXXooooooooooXXXXXXXOOXXXXooooXXXXXooooooooooXXXXXXXOOXXXXooooXXXXXooooooooooXXXXXXXOOXXXX    ",
"oooooXXXOOXXXXXooooooXXXXXXXXXXXXooooXXXOOXXXXXooooooXXXXXXXXXXXXooooXXXOOXXXXXooooooXXXXXXXXXX ",
"o ooXooXXXXXXXXXXXXooooooXXoooooXXXXXooXXXXXXXXXXXXooooooXXoooooXXXXXooXXXXXXXXXXXXooooooXXo   o",
"   ..XXXOOOOooooOXXXXXXXXooooXXXXooXXXXXOOOOooooOXXXXXXXXooooXXXXooXXXXXOOOOooooOXXXXXXXXoooo  o",
"   XXXooXXOOOXXXoooXoXXXXXXXXXXXXXXXXXooXXOOOXXXoooXoXXXXXXXXXXXXXXXXXooXXOOOXXXoooXoXXXXXXXXXX ",
"oooo  oXXXXXXXXXXXXXXXOOOOOoXXOoooooXXXXXXXXXXXXXXXXXXOOOOOoXXOoooooXXXXXXXXXXXXXXXXXXOOOOOoX  o",
"oooooXXOOXooXXXoooooOOXXoXXXoOXXXXXXXXXOOXooXXXoooooOOXXoXXXoOXXXXXXXXXOOXooXXXoooooOOXXoXXXo oo",
"  oXoOOXXXXXooXXXXXXXXXXXXXXXXXXoooXoOOXXXXXooXXXXXXXXXXXXXXXXXXoooXoOOXXXXXooXXXXXXXXXXXXXXXo  ",
"ooXXXXXOOOOXXXXXoooXXXXXooXXXXXXOXXXXXXOOOOXXXXXoooXXXXXooXXXXXXOXXXXXXOOOOXXXXXoooXXXXXooX    o",
"ooo  XXXXXOOOoooXXXXOOOXXXXooXooooOOOXXXXXOOOoooXXXXOOOXXXXooXooooOOOXXXXXOOOoooXXXXOOOXXXXooooo",
" oooXooooXXXXXXXOXXXXXXXXOOXXoXXoOXXXooooXXXXXXXOXXXXXXXXOOXXoXXoOXXXooooXXXXXXXOXXXXXXXXOOX    ",
".       XXXooOOOXXooXXXXOXXXXXXXXoXXXXXXXXXooOOOXXooXXXXOXXXXXXXXoXXXXXXXXXooOOOXXooXXXX........",
" ooooo  oXXXXooooXXXXoOOXXXXXXXXXXoXoooooXXXXooooXXXXoOOXXXXXXXXXXoXoooooXXXXooooXXXXoOo  ..... ",
"o  . ooo   XXXXXXooooXXXXXXXXXXoXXXXXXXXXXXXXXXXXooooXXXXXXXXXXoXXXXXXXXXXXXXXXXXooooXXX       o",
"ooo .   ooXXXXXoXXXXXXoooooooXXXooXXOOOOooXXXXXoXXXXXXoooooooXXXooXXOOOOooXXXXXoXXXXXX        oo",
"  .... XXXOOOooXOOOXXXXOOOOXXXooXXXXXXXXXXOOOooXOOOXXXXOOOOXXXooXXXXXXXXXXOOOooXOOOXXXXOooooooo ",
"    .XOOOoXXXXXXXXXXXXXXXXXXXXOOOOXOOXOOOoXXXXXXXXXXXXXXXXXXXXOOOOXOOXOOOoXXXXXXXXXXXXXXXX      ",
"   XXXXXXXooXooooooXoooXXXOOOOXXoXXXXXXXXXooXooooooXoooXXXOOOOXXoXXXXXXXXXooXooooooXoooXXooooo  ",
"oo  XXXOOOXXXXXXXXXXXXXXXXXXXOOXXoXXXXXOOOXXXXXXXXXXXXXXXXXXXOOXXoXXXXXOOOXXXXXXXXXXXXXXXXXooooo",
"o     OXXXXXXXXXXXooooXXoooooXXXXXXOOOOXXXXXXXXXXXooooXXoooooXXXXXXOOOOXXXXXXXXXXXooooXXo ooo   ",
"   ooo XXoooXXOOOoXXXXoooOOXXXXXXXOXooXXXoooXXOOOoXXXXoooOOXXXXXXXOXooXXXoooXXOOOoXXXX .      .o",
"  ooooXXXXXXOOXXXXXXXOOooooooooooXXXXXXXXXXXOOXXXXXXXOOooooooooooXXXXXXXXXXXOOXXXXXXooo ......  ",
" o       XOOOOOOXXXXXXXXXXXXXXXXXXXXooXXXXOOOOOOXXXXXXXXXXXXXXXXXXXXooXXXXOOOOOOXXXXX  ooooooo  ",
"        ooXXXoXXXXXoooXXXXXXooXXXXXXXXooooXXXoXXXXXoooXXXXXXooXXXXXXXXooooXXXoXXXX.  oo   o   oo",
"   ooooXXXXXXXOXXXXXXXooooooXXXooooXXXXXXXXXXXOXXXXXXXooooooXXXooooXXXXXXXXXXXOXXXX   ...  .... ",
"   oo    OoXXXXXooooXXXXXXXXOOOXXXXXXXXXOOoXXXXXooooXXXXXXXXOOOXXXXXXXXXOOoXXXXXooooX    .....  ",
" oo     XXXXoooXXXXXXOOOOOoOXooooooooOOOXXXXoooXXXXXXOOOOOoOXooooooooOOOXXXXoooXXXXXXOOOO       ",
"  .   XXXXXXXXXoooOOOOOOXXXXXXXXOXXXXXXXXXXXXXXoooOOOOOOXXXXXXXXOXXXXXXXXXXXXXXoooOOOOOOXXX     ",
"   ... XXXooooXXXXXOOOOXXoooooXXoooooooXXXooooXXXXXOOOOXXoooooXXoooooooXXXooooXXXXXOOOo  ooooooo",
"oo oooXooXXXXXXXXooXXXXXoXXXXXooXXXXXXXooXXXXXXXXooXXXXXoXXXXXooXXXXXXXooXXXXXXXXooXXXXXooo     ",
" ooooooOOOXXXooOOOOoooooXXXoooXXXXoooooOOOXXXooOOOOoooooXXXoooXXXXoooooOOOXXXooOOOOoooooXXXoo   ",
"   ooXOXXXXoOXXXXXXXXXXXOXXXXXXXXXXXXXOXXXXoOXXXXXXXXXXXOXXXXXXXXXXXXXOXXXXoOXXXXXXXXXXX    ooo ",
"  oooooooooooooXXXXXXXOOXXXXooooXXXXXooooooooooXXXXXXXOOXXXXooooXXXXXooooooooooXXXXXXX   ooo    ",
"oooo XXXOOXXXXXooooooXXXXXXXXXXXXooooXXXOOXXXXXooooooXXXXXXXXXXXXooooXXXOOXXXXXooooooXXoooooo   ",
"o oXXooXXXXXXXXXXXXooooooXXoooooXXXXXooXXXXXXXXXXXXooooooXXoooooXXXXXooXXXXXXXXXXXXooooooO     o",
"  oXXXXXOOOOooooOXXXXXXXXooooXXXXooXXXXXOOOOooooOXXXXXXXXooooXXXXooXXXXXOOOOooooOXXXXXXXX      o",
"    XXooXXOOOXXXoooXoXXXXXXXXXXXXXXXXXooXXOOOXXXoooXoXXXXXXXXXXXXXXXXXooXXOOOXXXoooXoXXXOOO     ",
"ooooXXXXXXXXXXXXXXXXXXOOOOOoXXOoooooXXXXXXXXXXXXXXXXXXOOOOOoXXOoooooXXXXXXXXXXXXXXXXXXOOOOOo   o",
"oooooXXOOXooXXXoooooOOXXoXXXoOXXXXXXXXXOOXooXXXoooooOOXXoXXXoOXXXXXXXXXOOXooXXXoooooOOX    oo oo",
"  ooooOXXXXXooXXXXXXXXXXXXXXXXXXoooXoOOXXXXXooXXXXXXXXXXXXXXXXXXoooXoOOXXXXXooXXXXXXXX     ooo  ",
"oo   XXOOOOXXXXXoooXXXXXooXXXXXXOXXXXXXOOOOXXXXXoooXXXXXooXXXXXXOXXXXXXOOOOXXXXXoooXXXX        o",
"ooo OXXXXXOOOoooXXXXOOOXXXXooXooooOOOXXXXXOOOoooXXXXOOOXXXXooXooooOOOXXXXXOOOoooXXXXOOOXXooooooo",
" oooooo  XXXXXXXOXXXXXXXXOOXXoXXoOXXXooooXXXXXXXOXXXXXXXXOOXXoXXoOXXXooooXXXXXXXOXXXXXOo        ",
".       XXXooOOOXXooXXXXOXXXXXXXXoXXXXXXXXXooOOOXXooXXXXOXXXXXXXXoXXXXXXXXXooOOOXXXXXX  ........",
" ooooo ooXXXXooooXXXXoOOXXXXXXXXXXoXoooooXXXXooooXXXXoOOXXXXXXXXXXoXoooooXXXXooooXXOOOOo  ..... ",
"oXXXXXXXXXXXXXXXXooooXXXXXXXXXXoXXXXXXXXXXXXXXXXXooooXXXXXXXXXXoXXXXXXXXXXXXXXOOXOOOXX         o",
"ooo .OOOooXXXXXoXXXXXXoooooooXXXooXXOOOOooXXXXXoXXXXXXoooooooXXXooXXOOOOooXXOOOOOOOXXXOOO     oo",
"  ....    OOOooXOOOXXXXOOOOXXXooXXXXXXXXXXOOOooXOOOXXXXOOOOXXXooXXXXXXXXXXOOOoOOXXXXOOOoooooooo "
};
