/* XPM */
static char *result[] = {
/* columns rows colors chars-per-pixel */
"64 64 85 1 ",
"  c #373327",
". c #373329",
"X c #3B352B",
"o c #3E382F",
"O c #3E3730",
"+ c #3F3930",
"@ c #40392F",
"# c #433C33",
"$ c #483F37",
"% c #474036",
"& c #484037",
"* c #474038",
"= c #4B443B",
"- c #4F483E",
"; c #50473F",
": c #50493F",
"> c #4E4940",
", c #504740",
"< c #534C43",
"1 c #584F47",
"2 c #575047",
"3 c #585047",
"4 c #575048",
"5 c #5B544B",
"6 c #5F584F",
"7 c #5F5750",
"8 c #5F5850",
"9 c #60574F",
"0 c #60584F",
"q c #605750",
"w c #645C53",
"e c #685F57",
"r c #665E58",
"t c #685F59",
"y c #676056",
"u c #696057",
"i c #676058",
"p c #6C645C",
"a c #70675E",
"s c #71695F",
"d c #6F6760",
"f c #716761",
"g c #746B63",
"h c #786F66",
"j c #776F68",
"k c #796F69",
"l c #767065",
"z c #797067",
"x c #777068",
"c c #7C746B",
"v c #7F7770",
"b c #80766E",
"n c #81786F",
"m c #807670",
"M c #847B73",
"N c #887E76",
"B c #897F78",
"V c #8A8077",
"C c #8C837A",
"Z c #91867D",
"A c #92887F",
"S c #918780",
"D c #958B82",
"F c #998F85",
"G c #9A8F88",
"H c #9A9087",
"J c #9D938A",
"K c #A1968D",
"L c #A3988E",
"P c #A69C92",
"I c #A99E94",
"U c #ACA096",
"Y c #AEA299",
"T c #B0A396",
"R c #B2A59C",
"E c #B5A99E",
"W c #B8A99F",
"Q c #B7AAA1",
"! c #B9ACA2",
"~ c #BEB0A5",
"^ c #C0B2A7",
"/ c #C3B4AA",
"( c #C7B9AD",
") c #CEBFB4",
"_ c #D1C1B6",
/* pixels */
"FFJSuaJJJJJJJHFFHFDHKHKAuCRTPKIPPIPIPIJJJuw!!PLUPPPPPIIIPPPIPPJJ",
"FJJS6FJKJJHHHHHFFHHHHHAAubWKJKKKLLLPJYKJJwM(UPPPJJJJCPJJHJKKJJJJ",
"DIJC6HDHJHFFHHHHHHHHDAAC,@gJJJGFJJJJJKJHJ6S!IPPLHLJFJKKKPURJJJJJ",
"FJCz9JHHHFFFHHHSCnzfpw95$#@<5etfbNbcAASCV&D~PUPJFPJHJKKPIKFFJJJJ",
"AMc3,MVCSSBdpw4=#*pcSDDDFAbZABbhfpw8ww2-**C/JPPJHJHJJJJJJHDIHGSJ",
"dw,XX&<5w755666-.5FRRYRRRRRRRRQRQRPUPHAM=XdMJUJVMBCCCCCBVMMMMxcM",
"iufmSHHKKPDCDFDM$pTRRYRRRKRRRRKRRIRRRRRS464xcxy<ppww85544>>>55id",
"PPPIPJJJJJJJJDFFg=AIPIYRTRYIYTIIPFKPLPKM36-4456yuuwpdfdfw.#jSPRU",
"HJJLLKJFJJJJJFFFv=yDIJHJKJJJJJJJKKKKFDCf-cFJJJJJJJAHJJJHC#cILJKJ",
"HJLPJJJHJJLJJFFFAV2xLPLHFFDDJJJJGBcf8y8o&MJJJJJJJJJHJJDHM=DJJJGH",
"FHKJJJJJJKLFHFFFDFs2gnCCMkgpppgcpppadlx5#vPJJDJJJJHJHHFAt=CDGJJJ",
"HJJJSFJFGPGFAFFDAx2oXX,nMCHR!^!YRPIPUKIK2MJJHFJHJHFHFFDFC3CFJJJJ",
"FGHHFHFFHFHAAChpypxcy>Y!RTRRUIPLIPPIPPKKypVACCACCFHFHFCFZ0NKJJHJ",
"DFHFHFFFSVMdwpfvZJJJV4UPPFIIPPILYQUIPIUFpoo$>42=<MAFFHFCn1uDFFFF",
"FJJKKGCgwigMCSFHJJDJCvKUPPUIPIIPIPIPJKJJS-lACMs=X&-5azf3@@MLDFJJ",
"HSMcpwwlxHJHHFHHJJHJCVPKIPIIIPPIIPHPJJJPFwA~WRWHAILSMf6&X#CILIPI",
"w48dMCFFFFHHJDDKJJHFcMYPIPLKKJKHGKGKJJJJHyCQRRRRYRRRRPRIC4MIKGCm",
"gvCFHFAHJJJJJFFJJJFg=aWLKKJJJHLKYRRILKDnp>lQRRRRRRRURRRRYpwjp5<w",
"AFHHJJJJJHJHHHHHFHAeo2L~QQIKHACMp=eq5$*=&#8YYYYIIRRRYPBIJzX,unNC",
"HHJJJHJJJDHDHJHFDAb<p==gmgatw53=X<KKKSAFAc4FKFJJKKPPPHCPSu,MDHJJ",
"CFKKHcDSZVNbMcgu3<=X#>4uw=MFKPIHe9WPJJJJJAigCHJJJHJSFJJVk*2pzMMM",
"4558<+%&;upafhccMBAFIYQRRGYRRQIRD<ALHHJHHAg#dSDGDAfxdczu38yw&>66",
"MCCVCfooARRRRRQQQWQRRRRRRQRYRRRRIekGFACAAM-o>88852$#o5MDJJLJMMFC",
"FKLJJD5cQKIRWRRRWRYYRYIRRPPQIJYQTw<bMp360dVMDJJJFMCpoCJJJJJHFHJJ",
"GJJJJFwFRLUYQRRRIRHHRUIYUUURIFQYPb##$4gSHJJJFHJJJJJA=MJJJJJHJJJK",
"SCJJFA5LERRRRRRRRUPKJJJJJJJHJJGJJN<<CJJJFFJJDJJHJJJA:sHJJJHHHDHH",
"DFFFFv<ITRQRRYIPKJJJJJJJJJJJJJJJJBqaPJJJAFJJJJJFJJJA<MJJHFFHHHHH",
"DFFFFv&uzUIKJKPPJHJJJJJHJJKPPJHDbw#<FJJJJHHJFHJJJHAC<hHJJJDJHHHD",
"SSCMl3#&6CKIIPDCSJHJJJJLPJFADAMi*<f#vLJJHJHJKHHDAACV:$3pmAACHFDF",
"y452gCg5==<5eppwvMCFDSCnu<<64-&X.=4$*MCMVVVncgsuw5<-o XXo&=wznMc",
"8+SJR~(/!LM5$@XXO$=,,&X@#&=<,=wwrrupasggu&=$@o $l:cCCCgzCNcg356w",
"V#PPFUUYIPIRUDMbgzcg&#gJJJKHFCJKPIUPLLJFLMHDMn52EAJERRWWRRRIFFHU",
"w+P~IPIYUPUPIIPPLPLL:pWKJJJDJJKKJDKJJJJJJJFKJJh5WRUWKRRRRYKRIRRY",
"C=j~UUQIPPPPPIIPUULH10TKFJJJFJIKHGKJJJJJJJJJJJk=LWRRRRIFRRIQRRRI",
"D>v!KRYLPIIPLPFLJJHn&=KIJJKJFJKHHHHHHvKHHHFJFHcw!EYRRRRIIQYPGKKK",
"S>v~LKKKLJKJJJKJJJHA5=IKKKPJHFHDFHHFFCPGFFDFDFz5!RIRRHKJJKHJJJJG",
"M=lYUJJKJFJJKKGKJJJF5#KKKJGGDHFAHHKDFHJFHDAAHSq,L!EYIHJJHJFJKZSG",
"=,,tCHJK!RQYIScNVvp5#XzTFKFFFHFFAADKHFCHKLKAMgXX2wupCCCCCCAZMp6q",
" 6w$>pxwMMvcaq#$=sVVVg=hhRTYRPKAbuep6<5wuuw653176<#X=245q63:$@..",
"CCvd<-<*#+o.#gZDLEERRRna,NFCke6-5ucMp.+&,wsfCLIQYLsaf<XXwccnMfmB",
"DJJJCCHFABna<TWRRRTRYTIIF535sMFnFKKJM=NIYCLHQRLYRLDTRzo*MPKJHHJJ",
"HJJJHCFJFAHc:KRTTUUUPYQQRc6JJJJJDKJN9NTRRSURYQRPQRRRF,*mJJJJJJKJ",
"FDJJJGJJHFDl<ZRRIJHJLIPPJsxHHAAHFDCwcRRRRIIRQYRRRRYPg#pHJJJJJJHH",
"FFHHHJKJJJKH3DRIJDKPLLKSc4ygp3yw5<$9TRRRIJJKJJPPKGJM=<cASJHFFFDF",
"AHFAFJJAHKKD3pCMh59p9<<143wdcMCAn5 9PTRWJKJJGJJJSKSw#MJFMHFFFFAF",
"ADFHHHFFDHHA9@@:0pzbgNAFHJJJJJJJGb#=bRRPJJJJJJJHJGg@6FLHFFFFFFFH",
"FHDHHHFFHHHA90AHDKKKKAFGHJJHCHHFAn<@GIKKLIIPLHMCBpXX#lVCMcCFFFFF",
"anCFHHMCHADV9hPHFKJHHHGGHHFFFHHHAFh=NPFNJPGMgu6>#X@X.o#+++*<46wi",
"ss6o@::0gvMV6pLKJSFFAFFHHAJJJFSCDCm<5w5=##+#-6pzBDDCbp&o<hMMMMzc",
"HJV-=u3zhw==#<ppu3pfpppfgssspfdppw,X #:wgpCULPPPPKJJJFp3MLJJLJJJ",
"HJAs0UZKKKACMczpr74$p3zMbzggu<suw5<@@ARKJJLJLJJJJJJSHJg=gLJFJJJJ",
"FHHA0HKHHJJHJHJJJJS5<VLJKLJJHDKKFFC1XbTIJJJJJJJHKJJFJJg<VLHHHAFH",
"AHHH6ZHHFFHFHDKKJHG86JJSJJJJJJJHCJHgXwIFJJJJJJJLJKJHHHy&cCDDFHHH",
"CCnClaKDDKJFHDFHHHDiwFJHJJJJFJJJHJCx#5PJJJJHHHJJJHDFNz=,<36w6fCA",
">2=--o=:<gcCAFACCFCw=xHJJJJJJJHJHHFC6=VPJHHHHFFFHHFDM<gKKFVgp6=-",
"MKJJbCAc:@=w90066w3#=FJFFHFFSFHHHFFFMopPPJFHHLPYPHHMpwKRRRRRYYJ:",
"LYYUYIIPApHJJHHHAC5 <FHFDFFHFHFFFFFFC><CFVHJJFVnSAcp#yJJHAJKKKHw",
"lCFFGGGFM0DKJFDDDDvo&VDDDHHJHHDFHHAAC6X<ppDDCVg,2*XX.#>45wwpgcjw",
"46588idi<X<ppwwwi5>*&68wwyppppddgczkk##<=*%=4cSCvgdpppp4uwrwwwrr",
"SzSZ8X<gnCApSJKJJHVHCMf>.=pcvlgw=2<>=#=6gx-=D/!!~(_~RUJJKKLPKKPK",
"JJPPvrHJHJJFJJJJJJJJJJHC*CEUYUUUCJLJJFCl-=+2vEUPPUYEEREYUUUPIIIP",
"HUPPCcKFGJJJKJJCJJJJJKJD>lRUUUPPUPUPFIIPF2>U__~YUPHUPUPPPYLUYIPU",
"JUPPCMKJJJJJPJHMKJJHJJJH2AUUPPPPPPUUPIPPUd4U_UPLLUULJJUUERPLSYPL",
"JJJV8BJJJHJJJJJJJJJDJJJH5DUUULUPU!YUPPJPJs>J~PUHJPPUPYR!~PUPVYKJ"
};
